<svg viewBox="0 0 72 72" xmlns="http://www.w3.org/2000/svg"><g style="fill:none;stroke:#000;stroke-linecap:round;stroke-linejoin:round;stroke-miterlimit:10;stroke-width:2"><path d="m51.5635 13.9302c-1.4963.1683-2.6617 1.4392-2.6617 2.9811 0 1.5119 1.1206 2.7634 2.575 2.9701"/><path d="m50.6968 66.8175-1.5845-13.0147c-.1329-1.0919-.8781-2.6217-1.6559-3.3996l-3.1716-3.1716c-.7778-.7778-2.1056-1.9904-2.9507-2.6946l-2.9271-2.4393c-.845-.7042-1.5364-2.1804-1.5364-3.2804 0-1.1.431-2.7901.9577-3.7558l5.0423-9.2442"/><path d="m48.0229 35.1769s-.2593.5941-.5761 1.3203c-.3169.7262-.093 2.0796.4976 3.0076l3.4189 5.3725"/><path d="m36.8706 39.8175-5.8531 8.3615c-.6308.9012-1.922 2.0959-2.8694 2.6549l-6.7221 3.967c-.9473.5591-1.4974 1.6915-1.2224 2.5165s1.3324 1.1579 2.3499.7398l8.4672-3.4796c1.0174-.4181 2.5226-1.3581 3.3447-2.0889l7.5052-6.6713"/><path d="m42.8706 25.8175c2-4 4.3589-4.2329 6.0312-3.583 1.6377.6367 2.4151 2.2378 2.3692 3.834"/><path d="m47.7514 26.9155 3.6653 5.4855"/><path d="m54.9781 4.866v61.9737"/><path d="m14.2247 20.8999h19.3736"/><path d="m29.0845 16.0755 4.8153 4.8152"/><path d="m29.0845 25.7451 4.8153-4.8152"/></g></svg>