<svg viewBox="0 0 1024 1024" xmlns="http://www.w3.org/2000/svg"><path d="m690.927 37.273c-81.318 78.61 13.03 203.09 87.084 113.626 76.106 142.474 13.366 262.507-160.558 157.23 10.248-21.368 16.113-46.158 16.113-72.595 0-80.366-54.178-145.512-121.014-145.512s-121.013 65.15-121.013 145.512c0 25.87 5.623 50.16 15.467 71.212-175.649 107.701-239.266-12.756-162.83-155.846 74.054 89.465 168.4-35.017 87.085-113.627-300.133 81.05-415.482 359.163-146.12 452.66h-2.182c1.265.17 2.52.37 3.78.558 17.984 6.16 37.674 11.496 59.11 15.907 100.347 39.483 172.932 135.036 178.82 228.395-66.903 46.118-118.75 125.46-118.75 125.46l52.49 77.247-82.303 46.874h163.66c-80.718-80.736-23.44-171.56 72.174-171.56 96.923 0 147.627 96.093 72.172 171.56h161.972l-80.614-46.874 52.49-77.25s-52.68-80.624-120.365-126.57c6.39-93.006 78.798-187.96 178.752-227.287 21.434-4.412 41.12-9.747 59.1-15.905 1.26-.19 2.518-.386 3.783-.558h-2.185c269.362-93.495 154.014-371.607-146.12-452.658z"/></svg>