<svg width="72" height="72" viewBox="0 0 72 72" fill="none" xmlns="http://www.w3.org/2000/svg">
<path d="M36.2372 20.0623C38.12 20.0623 39.6463 18.536 39.6463 16.6532C39.6463 14.7704 38.12 13.2441 36.2372 13.2441C34.3544 13.2441 32.8281 14.7704 32.8281 16.6532C32.8281 18.536 34.3544 20.0623 36.2372 20.0623Z" fill="black" stroke="black" stroke-width="3" stroke-miterlimit="10"/>
<path d="M19.2266 22.7969L20.4218 29.2222C21.0143 31.0011 22.3916 31.2076 23.4812 29.6816L25.1992 27.2757C26.2888 25.7498 28.7036 24.6918 30.5636 24.9243L32.8895 25.2149C34.7495 25.4474 37.7945 25.4474 39.6545 25.2149L41.9804 24.9243C43.8404 24.6918 46.2552 25.7498 47.3449 27.2757L49.0628 29.6816C50.1525 31.2076 51.5297 31.0011 52.1222 29.2222L53.8856 22.7969" stroke="black" stroke-width="3" stroke-miterlimit="10" stroke-linecap="round" stroke-linejoin="round"/>
<path d="M41.956 40.4102L44.7962 41.5465C45.957 42.0115 46.6463 43.7139 46.501 44.9556L45.6303 59.7439C45.485 60.9856 44.3419 62.0011 43.0924 62.0011C41.8428 62.0011 40.8196 60.9779 40.8196 59.7283V49.5011C40.8196 48.2515 40.3081 47.2283 39.6833 47.2283C39.0585 47.2283 37.5237 47.2283 36.2742 47.2283C35.0246 47.2283 33.4899 47.2283 32.8651 47.2283C32.2403 47.2283 31.7287 48.2515 31.7287 49.5011V59.7283C31.7287 60.9779 30.7056 62.0011 29.456 62.0011C28.2065 62.0011 27.0634 60.9856 26.9181 59.7439L26.0466 44.94C25.9012 43.6983 26.59 42.0115 27.7508 41.5465L30.5924 40.4102" stroke="black" stroke-width="2" stroke-miterlimit="10" stroke-linecap="round" stroke-linejoin="round"/>
<path d="M30.5914 40.4094C30.5914 40.4094 30.5914 38.9315 30.5914 37.1266C30.5914 35.3217 30.3362 31.9972 30.0233 29.7403C29.7103 27.4833 29.4551 25.6367 29.4551 25.6367" stroke="black" stroke-width="2" stroke-miterlimit="10" stroke-linecap="round" stroke-linejoin="round"/>
<path d="M41.9551 40.4094C41.9551 40.4094 41.9551 38.7936 41.9551 36.8189C41.9551 34.8441 42.2107 31.5195 42.5233 29.4325C42.8358 27.3454 43.0914 25.6367 43.0914 25.6367" stroke="black" stroke-width="2" stroke-miterlimit="10" stroke-linecap="round" stroke-linejoin="round"/>
<path d="M13.5455 31.3182C13.5455 31.943 13.0339 32.4545 12.4091 32.4545H10.1364C9.51159 32.4545 9 31.943 9 31.3182V13.1364C9 12.5116 9.51159 12 10.1364 12H12.4091C13.0339 12 13.5455 12.5116 13.5455 13.1364V31.3182Z" fill="black" stroke="black" stroke-width="2" stroke-miterlimit="10" stroke-linecap="round" stroke-linejoin="round"/>
<path d="M63.5455 31.3182C63.5455 31.943 63.0339 32.4545 62.4091 32.4545H60.1364C59.5116 32.4545 59 31.943 59 31.3182V13.1364C59 12.5116 59.5116 12 60.1364 12H62.4091C63.0339 12 63.5455 12.5116 63.5455 13.1364V31.3182Z" fill="black" stroke="black" stroke-width="2" stroke-miterlimit="10" stroke-linecap="round" stroke-linejoin="round"/>
<path d="M43.0908 21.0898C47.6363 21.0898 58.9999 22.2262 58.9999 22.2262" stroke="black" stroke-width="2" stroke-miterlimit="10" stroke-linecap="round" stroke-linejoin="round"/>
<path d="M13.5449 22.2262C13.5449 22.2262 21.4995 21.0898 29.454 21.0898" stroke="black" stroke-width="2" stroke-miterlimit="10" stroke-linecap="round" stroke-linejoin="round"/>
<path d="M30.5904 30.182L29.454 25.6365L34.5676 26.2047L38.5449 25.6365H41.954L44.2267 25.0684L42.5222 31.8865L41.3858 34.7275L41.954 39.5514L43.0904 40.9775L46.4995 43.2502V44.9547L45.9313 51.7729L45.3631 58.5911L43.6586 61.432H41.3858V56.3184V50.0684L40.6326 47.7146L36.8404 46.6593H32.8631L31.1586 48.3638V52.9093L31.7267 59.7274L29.454 61.432L27.7495 60.8638L27.1813 58.5911L26.0449 48.932V42.682L29.454 41.5456L31.1586 38.1365L30.5904 30.182Z" fill="black"/>
</svg>
