<svg viewBox="0 0 1024 1024" xmlns="http://www.w3.org/2000/svg"><path d="m983.293 595.587-67.594-22.31 1.59 1.665-373.85 135.67-357.88-378.335-87.856-28.998c-44.338 31.378-49.323 120.78-19.51 151.87l441.773 454.078 467.257-167.304c-42.553-23.26-77.1-89.476-3.93-146.337zm-488.137 122.533-368.136-381.698h11.02l366.51 374.19-9.393 7.508zm28.146 177.47s-50.93-59.504 15.072-138.695l400.04-144.866s-46.002 78.993 7.83 125.648zm-337.744-563.314-12.216-12.914 372.938-132.43 369.42 386.342 67.592 22.31c-.33.256-.64.514-.967.77l7.884-2.813-435.942-452-454.797 162.316 86.088 28.416z"/></svg>