<svg viewBox="0 0 1024 1024" xmlns="http://www.w3.org/2000/svg"><path d="M379.775 749.322l545.323-545.326L994.446 30.17l-173.82 69.358L275.303 644.84zM97.14 625.986l.003-.002-.002-.002zm85.354-85.354l-85.35 85.353 119.368 119.37L28.417 933.448l61.824 61.823 188.096-188.095 119.456 119.457 85.353-85.354c-125.902-72.686-228.783-176.167-300.65-300.647zm107.168-154.66l120.753 111.86 75.564-75.563-63.028-58.387 62.163-57.583L39.892 39.54l311.874 288.9zM734.838 652.8L608.522 535.79l-75.564 75.564 73.51 68.097-57.906 53.645 445.223 266.76L676.99 706.393z"/></svg>